<svg xmlns="http://www.w3.org/2000/svg" viewBox="0 0 288 38"><style type="text/css">
	.st0{fill:#b0bec5;}
</style><path class="st0" d="M244.7 12.2v2.1c0 0.3-0.1 0.6-0.2 0.8s-0.4 0.3-0.6 0.3c-0.2 0-0.4-0.1-0.6-0.3s-0.2-0.4-0.2-0.8v-2.5c0-0.4 0-0.7 0-0.9s-0.1-0.4-0.2-0.5 -0.3-0.2-0.6-0.2c-0.5 0-0.9 0.2-1 0.5s-0.2 0.9-0.2 1.5v2.2c0 0.3-0.1 0.6-0.2 0.8s-0.3 0.3-0.6 0.3c-0.2 0-0.4-0.1-0.6-0.3s-0.2-0.4-0.2-0.8V9.8c0-0.3 0.1-0.5 0.2-0.7s0.3-0.2 0.5-0.2c0.2 0 0.4 0.1 0.5 0.2s0.2 0.3 0.2 0.6v0.2c0.3-0.3 0.6-0.6 0.9-0.7s0.7-0.2 1.1-0.2c0.4 0 0.7 0.1 1 0.2s0.5 0.4 0.7 0.7c0.3-0.3 0.6-0.6 0.9-0.7s0.7-0.2 1-0.2c0.4 0 0.8 0.1 1.1 0.3s0.6 0.4 0.7 0.7c0.1 0.3 0.2 0.7 0.2 1.4v3.1c0 0.3-0.1 0.6-0.2 0.8s-0.4 0.3-0.6 0.3c-0.2 0-0.4-0.1-0.6-0.3s-0.2-0.4-0.2-0.8v-2.7c0-0.3 0-0.6 0-0.8s-0.1-0.4-0.2-0.5 -0.3-0.2-0.6-0.2c-0.2 0-0.4 0.1-0.6 0.2s-0.3 0.3-0.4 0.5C244.8 11 244.7 11.5 244.7 12.2z"/><path class="st0" d="M254 14.4c-0.4 0.3-0.8 0.5-1.1 0.7s-0.8 0.2-1.2 0.2c-0.4 0-0.8-0.1-1.1-0.2s-0.5-0.4-0.7-0.7 -0.3-0.6-0.3-0.9c0-0.4 0.1-0.8 0.4-1.1s0.7-0.5 1.1-0.6c0.1 0 0.4-0.1 0.8-0.2s0.7-0.2 1-0.2 0.6-0.2 0.9-0.2c0-0.4-0.1-0.7-0.3-0.9s-0.5-0.3-0.9-0.3c-0.4 0-0.7 0.1-0.9 0.2s-0.4 0.3-0.5 0.5S251 11 251 11.1s-0.2 0.1-0.4 0.1c-0.2 0-0.3-0.1-0.5-0.2s-0.2-0.3-0.2-0.4c0-0.3 0.1-0.6 0.3-0.8s0.5-0.5 0.9-0.7 0.9-0.3 1.6-0.3c0.7 0 1.3 0.1 1.7 0.2s0.7 0.4 0.9 0.8 0.2 0.8 0.2 1.4c0 0.4 0 0.7 0 1s0 0.6 0 0.9c0 0.3 0 0.6 0.1 0.9s0.1 0.5 0.1 0.6c0 0.2-0.1 0.3-0.2 0.4s-0.3 0.2-0.5 0.2c-0.2 0-0.3-0.1-0.5-0.2S254.2 14.7 254 14.4zM253.9 12.1c-0.2 0.1-0.6 0.2-1 0.3s-0.8 0.2-0.9 0.2 -0.3 0.1-0.5 0.3 -0.2 0.3-0.2 0.5c0 0.2 0.1 0.4 0.3 0.6s0.4 0.3 0.7 0.3c0.3 0 0.6-0.1 0.9-0.2s0.5-0.3 0.6-0.5c0.1-0.2 0.2-0.6 0.2-1.2V12.1z"/><path class="st0" d="M257 14.4V7.4c0-0.3 0.1-0.6 0.2-0.7s0.3-0.2 0.6-0.2 0.4 0.1 0.6 0.2 0.2 0.4 0.2 0.7v6.9c0 0.3-0.1 0.6-0.2 0.7s-0.3 0.2-0.6 0.2c-0.2 0-0.4-0.1-0.6-0.3S257 14.7 257 14.4z"/><path class="st0" d="M261.2 9.8l1 3.6 0.9-3.3c0.1-0.3 0.2-0.6 0.2-0.7s0.1-0.2 0.3-0.4 0.3-0.2 0.6-0.2c0.2 0 0.4 0.1 0.6 0.2s0.2 0.2 0.3 0.4 0.1 0.4 0.2 0.7l0.9 3.3 1.1-3.6c0.1-0.3 0.1-0.4 0.2-0.6s0.1-0.2 0.2-0.3 0.2-0.1 0.4-0.1 0.4 0.1 0.5 0.2 0.2 0.3 0.2 0.5c0 0.2-0.1 0.4-0.2 0.7l-1.3 3.8c-0.1 0.3-0.2 0.6-0.3 0.7s-0.2 0.3-0.3 0.4 -0.3 0.2-0.6 0.2c-0.2 0-0.4-0.1-0.6-0.2s-0.2-0.3-0.3-0.4 -0.1-0.4-0.2-0.7l-0.9-3.1 -0.9 3.1c-0.1 0.4-0.2 0.8-0.4 1s-0.4 0.3-0.7 0.3c-0.2 0-0.3 0-0.4-0.1s-0.2-0.2-0.3-0.3 -0.2-0.3-0.2-0.5 -0.1-0.3-0.1-0.4l-1.3-3.8c-0.1-0.4-0.2-0.6-0.2-0.7 0-0.2 0.1-0.3 0.2-0.5s0.3-0.2 0.5-0.2c0.3 0 0.4 0.1 0.5 0.2S261.1 9.5 261.2 9.8z"/><path class="st0" d="M273.8 14.4c-0.4 0.3-0.8 0.5-1.1 0.7s-0.8 0.2-1.2 0.2c-0.4 0-0.8-0.1-1.1-0.2s-0.5-0.4-0.7-0.7 -0.3-0.6-0.3-0.9c0-0.4 0.1-0.8 0.4-1.1s0.7-0.5 1.1-0.6c0.1 0 0.4-0.1 0.8-0.2s0.7-0.2 1-0.2 0.6-0.2 0.9-0.2c0-0.4-0.1-0.7-0.3-0.9s-0.5-0.3-0.9-0.3c-0.4 0-0.7 0.1-0.9 0.2s-0.4 0.3-0.5 0.5 -0.2 0.4-0.3 0.4 -0.2 0.1-0.4 0.1c-0.2 0-0.3-0.1-0.5-0.2s-0.2-0.3-0.2-0.4c0-0.3 0.1-0.6 0.3-0.8s0.5-0.5 0.9-0.7 0.9-0.3 1.6-0.3c0.7 0 1.3 0.1 1.7 0.2s0.7 0.4 0.9 0.8 0.2 0.8 0.2 1.4c0 0.4 0 0.7 0 1s0 0.6 0 0.9c0 0.3 0 0.6 0.1 0.9s0.1 0.5 0.1 0.6c0 0.2-0.1 0.3-0.2 0.4s-0.3 0.2-0.5 0.2c-0.2 0-0.3-0.1-0.5-0.2S274 14.7 273.8 14.4zM273.7 12.1c-0.2 0.1-0.6 0.2-1 0.3s-0.8 0.2-0.9 0.2 -0.3 0.1-0.5 0.3 -0.2 0.3-0.2 0.5c0 0.2 0.1 0.4 0.3 0.6s0.4 0.3 0.7 0.3c0.3 0 0.6-0.1 0.9-0.2s0.5-0.3 0.6-0.5c0.1-0.2 0.2-0.6 0.2-1.2V12.1z"/><path class="st0" d="M278.5 13v1.3c0 0.3-0.1 0.6-0.2 0.7s-0.3 0.2-0.6 0.2c-0.2 0-0.4-0.1-0.6-0.2s-0.2-0.4-0.2-0.7V9.9c0-0.7 0.3-1.1 0.8-1.1 0.3 0 0.5 0.1 0.6 0.3s0.2 0.4 0.2 0.7c0.2-0.3 0.4-0.6 0.6-0.7s0.5-0.3 0.8-0.3 0.7 0.1 1 0.3 0.5 0.4 0.5 0.7c0 0.2-0.1 0.4-0.2 0.5s-0.3 0.2-0.4 0.2c-0.1 0-0.2 0-0.4-0.1s-0.4-0.1-0.6-0.1c-0.2 0-0.4 0.1-0.6 0.2s-0.3 0.3-0.3 0.5 -0.1 0.5-0.2 0.9S278.5 12.6 278.5 13z"/><path class="st0" d="M286.5 12.5h-3.1c0 0.4 0.1 0.7 0.2 1s0.3 0.5 0.6 0.6 0.5 0.2 0.8 0.2c0.2 0 0.4 0 0.5-0.1s0.3-0.1 0.5-0.2 0.3-0.2 0.4-0.3 0.3-0.3 0.5-0.4c0.1-0.1 0.2-0.1 0.4-0.1 0.2 0 0.3 0 0.4 0.1s0.2 0.2 0.2 0.4c0 0.1-0.1 0.3-0.2 0.5s-0.3 0.4-0.5 0.6 -0.5 0.3-0.9 0.4 -0.7 0.2-1.2 0.2c-1 0-1.8-0.3-2.4-0.9s-0.9-1.4-0.9-2.4c0-0.5 0.1-0.9 0.2-1.3s0.3-0.8 0.6-1 0.6-0.5 1-0.7 0.8-0.2 1.3-0.2c0.6 0 1.2 0.1 1.6 0.4s0.8 0.6 1 1 0.3 0.8 0.3 1.3c0 0.4-0.1 0.7-0.3 0.8S286.9 12.5 286.5 12.5zM283.4 11.6h2.9c0-0.5-0.2-1-0.4-1.2s-0.6-0.4-1-0.4c-0.4 0-0.7 0.1-1 0.4S283.4 11 283.4 11.6z"/><path class="st0" d="M245.1 23.4c0 0.2-0.1 0.4-0.2 0.6s-0.3 0.4-0.5 0.6 -0.6 0.4-0.9 0.5 -0.8 0.2-1.3 0.2c-1 0-1.8-0.3-2.3-0.9s-0.8-1.3-0.8-2.3c0-0.7 0.1-1.2 0.4-1.7s0.6-0.9 1.1-1.2 1.1-0.4 1.7-0.4c0.4 0 0.8 0.1 1.1 0.2s0.6 0.3 0.9 0.5 0.4 0.4 0.6 0.6 0.2 0.4 0.2 0.6c0 0.2-0.1 0.4-0.2 0.5s-0.3 0.2-0.5 0.2c-0.1 0-0.2 0-0.3-0.1s-0.2-0.2-0.3-0.3c-0.2-0.3-0.4-0.5-0.6-0.7s-0.5-0.2-0.8-0.2c-0.5 0-0.9 0.2-1.1 0.6s-0.4 0.9-0.4 1.5c0 0.3 0 0.6 0.1 0.8s0.2 0.5 0.3 0.6 0.3 0.3 0.5 0.4 0.4 0.1 0.7 0.1c0.3 0 0.6-0.1 0.8-0.2s0.4-0.4 0.6-0.7c0.1-0.2 0.2-0.3 0.3-0.4s0.3-0.2 0.4-0.2c0.2 0 0.4 0.1 0.5 0.2S245.1 23.2 245.1 23.4z"/><path class="st0" d="M248 17.4v2.4c0.2-0.2 0.4-0.4 0.6-0.6s0.4-0.2 0.6-0.3 0.5-0.1 0.8-0.1c0.4 0 0.8 0.1 1.1 0.3s0.6 0.4 0.7 0.8c0.1 0.2 0.2 0.4 0.2 0.6s0.1 0.5 0.1 0.8v3.1c0 0.3-0.1 0.6-0.2 0.7s-0.3 0.2-0.6 0.2c-0.5 0-0.8-0.3-0.8-1v-2.7c0-0.5-0.1-0.9-0.2-1.2s-0.4-0.4-0.9-0.4c-0.3 0-0.5 0.1-0.8 0.2s-0.4 0.4-0.5 0.7c-0.1 0.2-0.1 0.7-0.1 1.3v2.1c0 0.3-0.1 0.6-0.2 0.7s-0.3 0.2-0.6 0.2c-0.5 0-0.8-0.3-0.8-1v-6.9c0-0.3 0.1-0.6 0.2-0.7s0.3-0.2 0.6-0.2c0.3 0 0.5 0.1 0.6 0.2S248 17.1 248 17.4z"/><path class="st0" d="M258.1 22.5h-3.1c0 0.4 0.1 0.7 0.2 1s0.3 0.5 0.6 0.6 0.5 0.2 0.8 0.2c0.2 0 0.4 0 0.5-0.1s0.3-0.1 0.5-0.2 0.3-0.2 0.4-0.3 0.3-0.3 0.5-0.4c0.1-0.1 0.2-0.1 0.4-0.1 0.2 0 0.3 0 0.4 0.1s0.2 0.2 0.2 0.4c0 0.1-0.1 0.3-0.2 0.5s-0.3 0.4-0.5 0.6 -0.5 0.3-0.9 0.4 -0.7 0.2-1.2 0.2c-1 0-1.8-0.3-2.4-0.9s-0.9-1.4-0.9-2.4c0-0.5 0.1-0.9 0.2-1.3s0.3-0.8 0.6-1 0.6-0.5 1-0.7 0.8-0.2 1.3-0.2c0.6 0 1.2 0.1 1.6 0.4s0.8 0.6 1 1 0.3 0.8 0.3 1.3c0 0.4-0.1 0.7-0.3 0.8S258.5 22.5 258.1 22.5zM254.9 21.6h2.9c0-0.5-0.2-1-0.4-1.2s-0.6-0.4-1-0.4c-0.4 0-0.7 0.1-1 0.4S255 21 254.9 21.6z"/><path class="st0" d="M266.4 23.4c0 0.2-0.1 0.4-0.2 0.6s-0.3 0.4-0.5 0.6 -0.6 0.4-0.9 0.5 -0.8 0.2-1.3 0.2c-1 0-1.8-0.3-2.3-0.9s-0.8-1.3-0.8-2.3c0-0.7 0.1-1.2 0.4-1.7s0.6-0.9 1.1-1.2 1.1-0.4 1.7-0.4c0.4 0 0.8 0.1 1.1 0.2s0.6 0.3 0.9 0.5 0.4 0.4 0.6 0.6 0.2 0.4 0.2 0.6c0 0.2-0.1 0.4-0.2 0.5s-0.3 0.2-0.5 0.2c-0.1 0-0.2 0-0.3-0.1s-0.2-0.2-0.3-0.3c-0.2-0.3-0.4-0.5-0.6-0.7s-0.5-0.2-0.8-0.2c-0.5 0-0.9 0.2-1.1 0.6s-0.4 0.9-0.4 1.5c0 0.3 0 0.6 0.1 0.8s0.2 0.5 0.3 0.6 0.3 0.3 0.5 0.4 0.4 0.1 0.7 0.1c0.3 0 0.6-0.1 0.8-0.2s0.4-0.4 0.6-0.7c0.1-0.2 0.2-0.3 0.3-0.4s0.3-0.2 0.4-0.2c0.2 0 0.4 0.1 0.5 0.2S266.4 23.2 266.4 23.4z"/><path class="st0" d="M271.6 24.6l-1.4-2.3 -0.9 0.8v1.3c0 0.3-0.1 0.5-0.2 0.7s-0.3 0.2-0.6 0.2c-0.2 0-0.4-0.1-0.6-0.2s-0.2-0.4-0.2-0.7v-6.8c0-0.4 0.1-0.6 0.2-0.8s0.3-0.3 0.6-0.3c0.2 0 0.4 0.1 0.6 0.3s0.2 0.4 0.2 0.7v3.9l1.8-1.9c0.2-0.2 0.4-0.4 0.5-0.5s0.3-0.1 0.4-0.1c0.2 0 0.4 0.1 0.5 0.2s0.2 0.3 0.2 0.5c0 0.2-0.2 0.5-0.7 0.9l-0.8 0.8 1.6 2.6c0.1 0.2 0.2 0.3 0.3 0.4s0.1 0.2 0.1 0.3c0 0.3-0.1 0.5-0.2 0.6s-0.3 0.2-0.5 0.2c-0.2 0-0.3-0.1-0.5-0.2S271.8 24.9 271.6 24.6z"/><path class="st0" d="M278.6 22.5h-3.1c0 0.4 0.1 0.7 0.2 1s0.3 0.5 0.6 0.6 0.5 0.2 0.8 0.2c0.2 0 0.4 0 0.5-0.1s0.3-0.1 0.5-0.2 0.3-0.2 0.4-0.3 0.3-0.3 0.5-0.4c0.1-0.1 0.2-0.1 0.4-0.1 0.2 0 0.3 0 0.4 0.1s0.2 0.2 0.2 0.4c0 0.1-0.1 0.3-0.2 0.5s-0.3 0.4-0.5 0.6 -0.5 0.3-0.9 0.4 -0.7 0.2-1.2 0.2c-1 0-1.8-0.3-2.4-0.9s-0.9-1.4-0.9-2.4c0-0.5 0.1-0.9 0.2-1.3s0.3-0.8 0.6-1 0.6-0.5 1-0.7 0.8-0.2 1.3-0.2c0.6 0 1.2 0.1 1.6 0.4s0.8 0.6 1 1 0.3 0.8 0.3 1.3c0 0.4-0.1 0.7-0.3 0.8S279.1 22.5 278.6 22.5zM275.5 21.6h2.9c0-0.5-0.2-1-0.4-1.2s-0.6-0.4-1-0.4c-0.4 0-0.7 0.1-1 0.4S275.6 21 275.5 21.6z"/><path class="st0" d="M285.6 24.4v-0.2c-0.2 0.2-0.4 0.4-0.6 0.6s-0.4 0.3-0.7 0.4 -0.5 0.1-0.8 0.1c-0.4 0-0.7-0.1-1.1-0.2s-0.6-0.4-0.8-0.7 -0.4-0.7-0.5-1.1 -0.2-0.8-0.2-1.3c0-1 0.2-1.8 0.7-2.3s1.1-0.8 1.9-0.8c0.5 0 0.8 0.1 1.2 0.2s0.6 0.4 0.9 0.7v-2.4c0-0.3 0.1-0.6 0.2-0.7s0.3-0.3 0.6-0.3 0.4 0.1 0.6 0.2 0.2 0.4 0.2 0.7v7.1c0 0.3-0.1 0.5-0.2 0.7s-0.3 0.2-0.5 0.2c-0.2 0-0.4-0.1-0.5-0.2S285.6 24.7 285.6 24.4zM282.5 22.1c0 0.4 0.1 0.8 0.2 1.1s0.3 0.5 0.6 0.7 0.5 0.2 0.8 0.2c0.3 0 0.5-0.1 0.8-0.2s0.4-0.4 0.6-0.7 0.2-0.7 0.2-1.1c0-0.4-0.1-0.8-0.2-1.1s-0.3-0.5-0.6-0.7S284.3 20 284 20c-0.3 0-0.6 0.1-0.8 0.2s-0.4 0.4-0.5 0.7S282.5 21.7 282.5 22.1z"/><path class="st0" d="M221.2 19.9c-0.2 0-0.4-0.1-0.5-0.2l-3-3c-0.3-0.3-0.3-0.8 0-1.1s0.8-0.3 1.1 0l2.5 2.5 9.4-9.4c0.3-0.3 0.8-0.3 1.1 0s0.3 0.8 0 1.1l-9.9 9.9C221.6 19.8 221.4 19.9 221.2 19.9z"/><path class="st0" d="M228 15.8c0.1 0.4 0.1 0.9 0.1 1.3 0 3.8-3.1 6.9-6.9 6.9 -3.8 0-6.9-3.1-6.9-6.9 0-3.8 3.1-6.9 6.9-6.9 1.5 0 3 0.5 4.1 1.4l1.1-1.1c-1.4-1.1-3.2-1.8-5.2-1.8 -4.7 0-8.4 3.8-8.4 8.4s3.8 8.4 8.4 8.4 8.4-3.8 8.4-8.4c0-0.9-0.1-1.8-0.4-2.6L228 15.8z"/><path class="st0" d="M27.2 9.1H26V8.8c0-0.3-0.1-0.5-0.2-0.7 -0.1-0.2-0.4-0.3-0.7-0.3 -0.2 0-0.3 0-0.4 0.1C24.6 8 24.5 8 24.5 8.1c-0.1 0.1-0.1 0.2-0.1 0.3 0 0.1 0 0.3 0 0.4 0 0.2 0 0.3 0 0.4 0 0.1 0 0.2 0.1 0.3s0.1 0.2 0.2 0.2C24.7 9.9 24.8 10 25 10l0.9 0.4c0.3 0.1 0.5 0.2 0.7 0.4 0.2 0.1 0.3 0.3 0.4 0.5 0.1 0.2 0.2 0.4 0.2 0.6 0 0.2 0 0.5 0 0.8 0 0.4 0 0.7-0.1 1 -0.1 0.3-0.2 0.6-0.4 0.8 -0.2 0.2-0.4 0.4-0.7 0.5s-0.6 0.2-1 0.2c-0.3 0-0.6-0.1-0.8-0.2 -0.3-0.1-0.5-0.2-0.7-0.4 -0.2-0.2-0.3-0.4-0.4-0.6S23 13.5 23 13.2v-0.5h1.2v0.4c0 0.2 0.1 0.4 0.2 0.6 0.1 0.2 0.4 0.3 0.7 0.3 0.2 0 0.4 0 0.5-0.1 0.1-0.1 0.2-0.1 0.3-0.3s0.1-0.2 0.1-0.4c0-0.2 0-0.3 0-0.5 0-0.2 0-0.4 0-0.6 0-0.1-0.1-0.3-0.1-0.3 -0.1-0.1-0.1-0.2-0.2-0.2 -0.1-0.1-0.2-0.1-0.4-0.2l-0.9-0.4c-0.5-0.2-0.9-0.5-1.1-0.9s-0.3-0.8-0.3-1.3c0-0.3 0-0.6 0.1-0.9s0.2-0.5 0.4-0.7c0.2-0.2 0.4-0.4 0.7-0.5 0.3-0.1 0.6-0.2 0.9-0.2 0.3 0 0.6 0.1 0.8 0.2 0.3 0.1 0.5 0.3 0.6 0.4s0.3 0.4 0.4 0.6c0.1 0.2 0.1 0.5 0.1 0.7V9.1z"/><path class="st0" d="M28.8 6.6h3.6v1.2h-2.4v2.5h2.1v1.2h-2.1V14h2.4v1.2h-3.6V6.6z"/><path class="st0" d="M37.9 13.3c0 0.3 0 0.5-0.1 0.8 -0.1 0.2-0.2 0.4-0.4 0.6s-0.4 0.3-0.6 0.4c-0.2 0.1-0.5 0.2-0.8 0.2 -0.2 0-0.5 0-0.7-0.1 -0.2-0.1-0.5-0.2-0.6-0.3s-0.4-0.4-0.5-0.6c-0.1-0.3-0.2-0.6-0.2-1V8.5c0-0.3 0-0.5 0.1-0.8 0.1-0.2 0.2-0.4 0.4-0.6 0.2-0.2 0.4-0.3 0.6-0.4s0.5-0.2 0.8-0.2c0.3 0 0.5 0.1 0.8 0.2 0.2 0.1 0.4 0.2 0.6 0.4 0.2 0.2 0.3 0.4 0.4 0.6s0.1 0.5 0.1 0.8v0.5h-1.2V8.7c0-0.2-0.1-0.4-0.2-0.6 -0.1-0.2-0.3-0.3-0.6-0.3 -0.3 0-0.5 0.1-0.6 0.3s-0.1 0.4-0.1 0.7v4.4c0 0.2 0.1 0.5 0.2 0.6s0.3 0.3 0.6 0.3c0.1 0 0.2 0 0.3 0 0.1 0 0.2-0.1 0.3-0.1s0.1-0.2 0.2-0.3c0-0.1 0.1-0.3 0.1-0.4v-0.4h1.2V13.3z"/><path class="st0" d="M43.6 13.3c0 0.3-0.1 0.5-0.2 0.8 -0.1 0.2-0.2 0.5-0.4 0.6 -0.2 0.2-0.4 0.3-0.6 0.4 -0.2 0.1-0.5 0.2-0.8 0.2 -0.3 0-0.5-0.1-0.8-0.2 -0.2-0.1-0.5-0.2-0.6-0.4 -0.2-0.2-0.3-0.4-0.4-0.6 -0.1-0.2-0.2-0.5-0.2-0.8V6.6h1.2v6.5c0 0.3 0.1 0.5 0.2 0.7s0.3 0.2 0.5 0.2c0.2 0 0.4-0.1 0.5-0.2s0.2-0.4 0.2-0.7V6.6h1.2V13.3z"/><path class="st0" d="M45.4 6.6h2c1.4 0 2.2 0.8 2.2 2.5 0 0.5-0.1 0.9-0.2 1.3 -0.2 0.4-0.4 0.6-0.8 0.9l1.3 3.9h-1.3l-1.1-3.6h-0.7v3.6h-1.2V6.6zM46.7 10.5h0.7c0.2 0 0.4 0 0.5-0.1 0.1-0.1 0.2-0.1 0.3-0.3 0.1-0.1 0.1-0.2 0.1-0.4 0-0.2 0-0.4 0-0.6s0-0.4 0-0.6 -0.1-0.3-0.1-0.4C48.1 8 48 7.9 47.8 7.9c-0.1-0.1-0.3-0.1-0.5-0.1h-0.6V10.5z"/><path class="st0" d="M51.3 6.6h3.6v1.2h-2.4v2.5h2.1v1.2h-2.1V14h2.4v1.2h-3.6V6.6z"/><path class="st0" d="M56.4 6.6h1.8c0.7 0 1.2 0.2 1.6 0.6s0.6 0.9 0.6 1.6v4c0 0.8-0.2 1.4-0.6 1.8 -0.4 0.4-0.9 0.6-1.7 0.6h-1.7V6.6zM57.7 14h0.6c0.3 0 0.6-0.1 0.7-0.3 0.1-0.2 0.2-0.4 0.2-0.8V8.9c0-0.3-0.1-0.6-0.2-0.8 -0.1-0.2-0.4-0.3-0.7-0.3h-0.6V14z"/><path class="st0" d="M24.1 18.2h-1.4V17h4.1v1.2h-1.4v7.4h-1.2V18.2z"/><path class="st0" d="M27.2 17h2c1.4 0 2.2 0.8 2.2 2.5 0 0.5-0.1 0.9-0.2 1.3 -0.2 0.4-0.4 0.6-0.8 0.9l1.3 3.9h-1.3l-1.1-3.6h-0.7v3.6h-1.2V17zM28.5 20.9h0.7c0.2 0 0.4 0 0.5-0.1 0.1-0.1 0.2-0.1 0.3-0.3 0.1-0.1 0.1-0.2 0.1-0.4 0-0.2 0-0.4 0-0.6s0-0.4 0-0.6S30 18.7 30 18.5c-0.1-0.1-0.2-0.2-0.3-0.3 -0.1-0.1-0.3-0.1-0.5-0.1h-0.6V20.9z"/><path class="st0" d="M33.7 17h1l1.9 8.5h-1.2L35 23.8h-1.7L33 25.6h-1.2L33.7 17zM34.2 19.5L34.2 19.5l-0.6 3.1h1.2L34.2 19.5z"/><path class="st0" d="M37.2 17h1.2l1.8 5.1h0V17h1.2v8.5h-1.2l-1.9-5.1h0v5.1h-1.2V17z"/><path class="st0" d="M46.5 19.5h-1.2v-0.3c0-0.3-0.1-0.5-0.2-0.7 -0.1-0.2-0.4-0.3-0.7-0.3 -0.2 0-0.3 0-0.4 0.1 -0.1 0.1-0.2 0.1-0.3 0.2 -0.1 0.1-0.1 0.2-0.1 0.3 0 0.1 0 0.3 0 0.4 0 0.2 0 0.3 0 0.4 0 0.1 0 0.2 0.1 0.3s0.1 0.2 0.2 0.2c0.1 0.1 0.2 0.1 0.4 0.2l0.9 0.4c0.3 0.1 0.5 0.2 0.7 0.4 0.2 0.1 0.3 0.3 0.4 0.5 0.1 0.2 0.2 0.4 0.2 0.6 0 0.2 0 0.5 0 0.8 0 0.4 0 0.7-0.1 1 -0.1 0.3-0.2 0.6-0.4 0.8 -0.2 0.2-0.4 0.4-0.7 0.5s-0.6 0.2-1 0.2c-0.3 0-0.6-0.1-0.8-0.2 -0.3-0.1-0.5-0.2-0.7-0.4 -0.2-0.2-0.3-0.4-0.4-0.6s-0.2-0.5-0.2-0.8v-0.5h1.2v0.4c0 0.2 0.1 0.4 0.2 0.6 0.1 0.2 0.4 0.3 0.7 0.3 0.2 0 0.4 0 0.5-0.1 0.1-0.1 0.2-0.1 0.3-0.3s0.1-0.2 0.1-0.4c0-0.2 0-0.3 0-0.5 0-0.2 0-0.4 0-0.6 0-0.1-0.1-0.3-0.1-0.3 -0.1-0.1-0.1-0.2-0.2-0.2 -0.1-0.1-0.2-0.1-0.4-0.2l-0.9-0.4c-0.5-0.2-0.9-0.5-1.1-0.9s-0.3-0.8-0.3-1.3c0-0.3 0-0.6 0.1-0.9s0.2-0.5 0.4-0.7c0.2-0.2 0.4-0.4 0.7-0.5 0.3-0.1 0.6-0.2 0.9-0.2 0.3 0 0.6 0.1 0.8 0.2 0.3 0.1 0.5 0.3 0.6 0.4s0.3 0.4 0.4 0.6c0.1 0.2 0.1 0.5 0.1 0.7V19.5z"/><path class="st0" d="M47.4 17h3.6v1.2h-2.4v2.6h2.1v1.2h-2.1v3.6h-1.2V17z"/><path class="st0" d="M51.9 17h3.6v1.2h-2.4v2.5h2.1v1.2h-2.1v2.5h2.4v1.2h-3.6V17z"/><path class="st0" d="M56.3 17h2c1.4 0 2.2 0.8 2.2 2.5 0 0.5-0.1 0.9-0.2 1.3 -0.2 0.4-0.4 0.6-0.8 0.9l1.3 3.9h-1.3l-1.1-3.6h-0.7v3.6h-1.2V17zM57.5 20.9h0.7c0.2 0 0.4 0 0.5-0.1 0.1-0.1 0.2-0.1 0.3-0.3 0.1-0.1 0.1-0.2 0.1-0.4 0-0.2 0-0.4 0-0.6s0-0.4 0-0.6 -0.1-0.3-0.1-0.4c-0.1-0.1-0.2-0.2-0.3-0.3 -0.1-0.1-0.3-0.1-0.5-0.1h-0.6V20.9z"/><path class="st0" d="M16.1 12.8h-2.2V11c0-3.6-1.7-5.7-5-5.7 -3.3 0-5 2.1-5 5.7v1.7H1.4c-0.7 0-1.2 0.8-1.2 1.5V24c0 0.7 0.5 1.4 1.2 1.6l1.5 0.5c0.7 0.2 1.7 0.4 2.4 0.4h7.2c0.7 0 1.8-0.2 2.4-0.4l1.5-0.5c0.7-0.2 1.2-0.9 1.2-1.6v-9.7C17.6 13.6 16.8 12.8 16.1 12.8zM6.4 10.5c0-1.8 1-2.7 2.5-2.7s2.5 0.9 2.5 2.7v2.2h-5V10.5zM15.6 22.7c0 0.5-0.4 1-0.8 1.2l-1.1 0.3c-0.5 0.1-1.2 0.3-1.7 0.3H5.9c-0.5 0-1.3-0.1-1.7-0.3l-1.1-0.3c-0.5-0.1-0.8-0.7-0.8-1.2v-6.9c0-0.5 0.4-1.1 0.9-1.1h11.4c0.5 0 1.1 0.6 1.1 1.1V22.7z"/><path class="st0" d="M135.1 18.6c-0.3 0.4-0.6 0.7-0.9 0.9s-0.6 0.4-0.9 0.5 -0.6 0.2-0.9 0.3 -0.7 0.1-1.1 0.1c-0.8 0-1.4-0.1-2-0.4s-1.1-0.7-1.4-1.2c-0.4-0.5-0.7-1.1-0.9-1.8s-0.3-1.4-0.3-2.2c0-0.5 0-1 0.1-1.4s0.2-0.9 0.4-1.3 0.4-0.8 0.6-1.1c0.3-0.3 0.6-0.7 0.9-0.9s0.7-0.5 1.2-0.6 0.9-0.2 1.5-0.2c0.3 0 0.6 0 0.9 0.1s0.6 0.1 0.8 0.2 0.5 0.2 0.8 0.4 0.5 0.3 0.7 0.6l-1 1.3c-0.2-0.2-0.3-0.3-0.5-0.5s-0.3-0.2-0.5-0.3 -0.4-0.1-0.6-0.2 -0.4-0.1-0.6-0.1c-0.5 0-0.9 0.1-1.2 0.3s-0.6 0.5-0.8 0.8 -0.4 0.8-0.5 1.2 -0.2 0.9-0.2 1.4c0 0.6 0.1 1.2 0.2 1.8s0.3 1 0.5 1.4 0.5 0.7 0.8 1 0.7 0.3 1.1 0.3c0.3 0 0.6 0 0.9-0.1s0.5-0.1 0.7-0.3 0.4-0.3 0.5-0.4 0.3-0.4 0.5-0.6L135.1 18.6z"/><path class="st0" d="M143.2 18.9c-0.3 0.3-0.6 0.5-0.8 0.7s-0.5 0.3-0.8 0.4 -0.5 0.2-0.8 0.2 -0.5 0-0.8 0c-0.6 0-1.2-0.1-1.6-0.3s-0.8-0.5-1.1-0.9 -0.5-0.8-0.6-1.3 -0.2-1-0.2-1.5c0-0.5 0.1-1 0.2-1.4s0.4-0.8 0.6-1.2 0.6-0.6 1.1-0.8 0.9-0.3 1.5-0.3c0.5 0 1 0.1 1.4 0.2s0.7 0.3 1 0.6 0.5 0.6 0.6 1 0.2 0.8 0.2 1.3c0 0.2 0 0.4 0 0.6s0 0.4-0.1 0.6h-4.6c0 0.2 0 0.4 0.1 0.7s0.2 0.5 0.3 0.7 0.3 0.4 0.6 0.6 0.5 0.2 0.8 0.2c0.2 0 0.5 0 0.6-0.1s0.4-0.1 0.5-0.2 0.3-0.2 0.5-0.3 0.3-0.3 0.5-0.5L143.2 18.9zM139.8 13.9c-0.3 0-0.5 0.1-0.7 0.2s-0.3 0.2-0.4 0.4 -0.2 0.4-0.2 0.6 -0.1 0.4-0.1 0.6h2.8c0-0.2 0-0.4 0-0.6s-0.1-0.4-0.2-0.6 -0.2-0.3-0.4-0.4S140.1 13.9 139.8 13.9z"/><path class="st0" d="M146.6 12.7c0.1 0.5 0.2 1 0.2 1.5 0.1-0.2 0.2-0.4 0.4-0.6s0.3-0.4 0.5-0.5 0.4-0.3 0.6-0.4 0.4-0.1 0.6-0.1c0.3 0 0.4 0 0.6 0s0.2 0.1 0.3 0.1l-0.4 1.6c-0.1-0.1-0.3-0.1-0.4-0.1s-0.2 0-0.4 0c-0.4 0-0.8 0.1-1.1 0.3s-0.6 0.5-0.7 0.8l0 4.8h-1.8V14c0-0.1 0-0.2 0-0.3s0-0.2 0-0.4 0-0.2 0-0.3 0-0.2 0-0.2H146.6z"/><path class="st0" d="M150.9 13.1l1.1-0.4 0.5-1.9h1.3v1.9h1.8l-0.2 1.3h-1.6v3.8c0 0.2 0 0.4 0 0.5s0.1 0.3 0.1 0.3 0.1 0.1 0.2 0.2 0.2 0.1 0.3 0.1c0.1 0 0.3 0 0.5-0.1s0.4-0.1 0.6-0.2l0.4 0.9c-0.3 0.3-0.7 0.4-1 0.6s-0.6 0.2-0.9 0.2c-0.4 0-0.7-0.1-1-0.2s-0.5-0.3-0.6-0.5 -0.3-0.4-0.3-0.7 -0.1-0.6-0.1-1v-4h-1.1V13.1z"/><path class="st0" d="M157.3 10.4c0-0.1 0-0.3 0.1-0.4s0.1-0.2 0.2-0.3 0.2-0.2 0.3-0.2 0.2-0.1 0.4-0.1c0.1 0 0.3 0 0.4 0.1s0.2 0.1 0.3 0.2 0.2 0.2 0.2 0.3 0.1 0.2 0.1 0.4 0 0.3-0.1 0.4 -0.1 0.2-0.2 0.3 -0.2 0.2-0.3 0.2 -0.3 0.1-0.4 0.1c-0.1 0-0.3 0-0.4-0.1s-0.2-0.1-0.3-0.2 -0.2-0.2-0.2-0.3S157.3 10.5 157.3 10.4zM157.4 12.7h1.8v7.4h-1.8V12.7z"/><path class="st0" d="M161.8 12.7v-0.6c0-0.5 0.1-0.9 0.2-1.3s0.3-0.7 0.5-0.9 0.5-0.4 0.8-0.5 0.6-0.2 1-0.2c0.2 0 0.3 0 0.5 0s0.4 0.1 0.5 0.1 0.4 0.1 0.5 0.2 0.3 0.1 0.4 0.2l-0.8 1.3c-0.1-0.1-0.1-0.1-0.2-0.2s-0.2-0.1-0.3-0.2 -0.2-0.1-0.3-0.1 -0.3 0-0.4 0c-0.3 0-0.5 0-0.7 0.1s-0.3 0.1-0.3 0.2c0 0 0 0.1 0 0.2s0 0.2 0.1 0.3 0 0.2 0.1 0.4 0 0.3 0.1 0.4 0 0.2 0.1 0.3 0 0.2 0 0.2h1.6L165 14h-1.5v6.1h-1.8V14h-1v-0.9L161.8 12.7z"/><path class="st0" d="M167.2 10.4c0-0.1 0-0.3 0.1-0.4s0.1-0.2 0.2-0.3 0.2-0.2 0.3-0.2 0.2-0.1 0.4-0.1c0.1 0 0.3 0 0.4 0.1s0.2 0.1 0.3 0.2 0.2 0.2 0.2 0.3 0.1 0.2 0.1 0.4 0 0.3-0.1 0.4 -0.1 0.2-0.2 0.3 -0.2 0.2-0.3 0.2 -0.3 0.1-0.4 0.1c-0.1 0-0.3 0-0.4-0.1s-0.2-0.1-0.3-0.2 -0.2-0.2-0.2-0.3S167.2 10.5 167.2 10.4zM167.3 12.7h1.8v7.4h-1.8V12.7z"/><path class="st0" d="M177.8 18.9c-0.3 0.3-0.6 0.5-0.8 0.7s-0.5 0.3-0.8 0.4 -0.5 0.2-0.8 0.2 -0.5 0-0.8 0c-0.6 0-1.2-0.1-1.6-0.3s-0.8-0.5-1.1-0.9 -0.5-0.8-0.6-1.3 -0.2-1-0.2-1.5c0-0.5 0.1-1 0.2-1.4s0.4-0.8 0.6-1.2 0.6-0.6 1.1-0.8 0.9-0.3 1.5-0.3c0.5 0 1 0.1 1.4 0.2s0.7 0.3 1 0.6 0.5 0.6 0.6 1 0.2 0.8 0.2 1.3c0 0.2 0 0.4 0 0.6s0 0.4-0.1 0.6h-4.6c0 0.2 0 0.4 0.1 0.7s0.2 0.5 0.3 0.7 0.3 0.4 0.6 0.6 0.5 0.2 0.8 0.2c0.2 0 0.5 0 0.6-0.1s0.4-0.1 0.5-0.2 0.3-0.2 0.5-0.3 0.3-0.3 0.5-0.5L177.8 18.9zM174.4 13.9c-0.3 0-0.5 0.1-0.7 0.2s-0.3 0.2-0.4 0.4 -0.2 0.4-0.2 0.6 -0.1 0.4-0.1 0.6h2.8c0-0.2 0-0.4 0-0.6s-0.1-0.4-0.2-0.6 -0.2-0.3-0.4-0.4S174.7 13.9 174.4 13.9z"/><path class="st0" d="M182.9 12.6c0.4 0 0.7 0 0.9 0.1s0.5 0.2 0.6 0.3V9.4h1.8v8.2c0 0.2 0 0.4 0 0.6s0 0.4 0.1 0.7 0.1 0.4 0.2 0.7 0.1 0.4 0.2 0.6h-1.7c0 0-0.1-0.1-0.1-0.1s-0.1-0.1-0.1-0.2 -0.1-0.1-0.1-0.2 -0.1-0.1-0.1-0.2c-0.2 0.3-0.5 0.5-0.9 0.7s-0.7 0.2-1.1 0.2c-0.5 0-1-0.1-1.4-0.3s-0.8-0.5-1-0.8 -0.5-0.7-0.6-1.2 -0.2-1-0.2-1.5c0-0.5 0.1-1 0.2-1.4s0.4-0.9 0.7-1.2 0.7-0.6 1.1-0.8S182.4 12.6 182.9 12.6zM182.9 18.9c0.3 0 0.5 0 0.8-0.1s0.5-0.2 0.7-0.3v-4.3c-0.2-0.1-0.4-0.2-0.6-0.2s-0.4-0.1-0.7-0.1c-0.3 0-0.6 0.1-0.8 0.2s-0.4 0.3-0.6 0.5 -0.3 0.5-0.4 0.8 -0.1 0.6-0.1 0.9c0 0.3 0 0.6 0.1 1s0.2 0.6 0.3 0.8 0.3 0.4 0.5 0.6S182.6 18.9 182.9 18.9z"/><path class="st0" d="M103.3 12.8c0-0.5 0-1.1-0.2-1.5 -0.1-0.4-0.4-0.7-0.7-0.7 -0.6 0-0.8 0.6-0.8 1.5 0 0.5 0.2 1.1 0.6 1.7s0.8 1.2 1.2 1.8c0.5 0.8 1 1.6 1.4 2.4s0.7 1.6 0.7 2.4c0 1-0.2 2-0.7 2.7s-1.3 1.2-2.5 1.2c-1.4 0-2.3-0.5-2.7-1.4s-0.6-2-0.6-3.1l2.2-0.2c0 0.7 0 1.3 0.2 1.8 0.1 0.5 0.4 0.8 0.9 0.8 0.7 0 0.9-0.7 0.9-1.7 0-0.5-0.3-1.1-0.6-1.7 -0.2-0.3-0.4-0.6-0.6-0.9 -0.4-0.6-0.9-1.3-1.4-2.1s-0.9-1.6-1.1-2.4c-0.1-0.4-0.2-0.8-0.2-1.2 0-0.8 0.2-1.7 0.7-2.4 0.5-0.7 1.2-1.2 2.3-1.2 1.4 0 2.2 0.5 2.6 1.4 0.4 0.8 0.6 1.9 0.6 2.7L103.3 12.8z"/><path class="st0" d="M110.8 12.8c0-0.5 0-1.1-0.2-1.5 -0.1-0.4-0.4-0.7-0.7-0.7 -0.6 0-0.8 0.6-0.8 1.5 0 0.5 0.2 1.1 0.6 1.7s0.8 1.2 1.2 1.8c0.5 0.8 1 1.6 1.4 2.4s0.7 1.6 0.7 2.4c0 1-0.2 2-0.7 2.7s-1.3 1.2-2.5 1.2c-1.4 0-2.3-0.5-2.7-1.4s-0.6-2-0.6-3.1l2.2-0.2c0 0.7 0 1.3 0.2 1.8 0.1 0.5 0.4 0.8 0.9 0.8 0.7 0 0.9-0.7 0.9-1.7 0-0.5-0.3-1.1-0.6-1.7 -0.2-0.3-0.4-0.6-0.6-0.9 -0.4-0.6-0.9-1.3-1.4-2.1s-0.9-1.6-1.1-2.4c-0.1-0.4-0.2-0.8-0.2-1.2 0-0.8 0.2-1.7 0.7-2.4 0.5-0.7 1.2-1.2 2.3-1.2 1.4 0 2.2 0.5 2.6 1.4 0.4 0.8 0.6 1.9 0.6 2.7L110.8 12.8z"/><path class="st0" d="M114.2 8.7h2.3V22h3v2.1h-5.3V8.7z"/><path class="st0" d="M108.8 2c1.4 1.1 4.3 2.7 8.5 2.7 1.4 0 2.8-0.2 4.3-0.5l1.9 1.9c-0.6 0.8-1.3 2-1.8 3.6 -0.9 2.7-1.3 7.1 1.7 12.4 0.7 1.3 0.9 2.6 0.3 3.9 -1.8 4.8-11 9-15 10.5 -4-1.5-13.2-5.7-15-10.5 -0.5-1.3-0.4-2.6 0.3-3.9 3-5.3 2.6-9.7 1.7-12.4C95.4 8 94.6 6.8 94.1 6L96 4.1c1.5 0.3 2.9 0.5 4.3 0.5C104.5 4.6 107.3 3 108.8 2M108.8 0c0 0-2.9 3.1-8.5 3.1 -1.4 0-3-0.2-4.8-0.7L92 5.9c0 0 6.1 5.9 0.8 15.3C87.5 30.6 108.8 38 108.8 38s21.2-7.4 15.9-16.7c-5.3-9.4 0.8-15.3 0.8-15.3l-3.5-3.5c-1.8 0.5-3.3 0.7-4.8 0.7C111.7 3.1 108.8 0 108.8 0L108.8 0z"/></svg>
